<?xml version="1.0" encoding="iso-8859-1"?>
<!-- Generator: Adobe Illustrator 18.0.0, SVG Export Plug-In . SVG Version: 6.00 Build 0)  -->
<!DOCTYPE svg PUBLIC "-//W3C//DTD SVG 1.1//EN" "http://www.w3.org/Graphics/SVG/1.1/DTD/svg11.dtd">
<svg version="1.1" id="Capa_1" xmlns="http://www.w3.org/2000/svg" xmlns:xlink="http://www.w3.org/1999/xlink" x="0px" y="0px"
	 viewBox="0 0 225.448 225.448" style="enable-background:new 0 0 225.448 225.448;" xml:space="preserve">
<path d="M220.079,54.143c-5.663-8.203-14.994-13.101-24.962-13.101H51.543c-12.523,0-23.92,7.867-28.359,19.577L1.971,116.564
	c-3.534,9.32-2.265,19.781,3.397,27.983c5.663,8.203,14.994,13.101,24.962,13.101h104.588l27.405,25.423
	c0.943,0.875,2.163,1.334,3.401,1.334c0.675,0,1.355-0.137,1.999-0.417c1.822-0.795,3-2.594,3-4.583v-21.758h3.181
	c12.522,0,23.92-7.867,28.359-19.576l21.213-55.945C227.011,72.807,225.742,62.346,220.079,54.143z"/>
<g>
</g>
<g>
</g>
<g>
</g>
<g>
</g>
<g>
</g>
<g>
</g>
<g>
</g>
<g>
</g>
<g>
</g>
<g>
</g>
<g>
</g>
<g>
</g>
<g>
</g>
<g>
</g>
<g>
</g>
</svg>
